<mxfile host="app.diagrams.net" modified="2023-10-18T03:24:59.835Z" agent="Mozilla/5.0 (Macintosh; Intel Mac OS X 10.15; rv:109.0) Gecko/20100101 Firefox/117.0" version="22.0.4" etag="Px8tV6KNWJTwTv2-e9y5" type="github">
  <diagram name="Page-1" id="Dai-cdcqyqSSC0DXlGxk">
    <mxGraphModel>
      <root>
        <mxCell id="0" />
        <mxCell id="1" parent="0" />
      </root>
    </mxGraphModel>
  </diagram>
</mxfile>
